# xmcd CD database file
#
# Track frame offsets:
#	150
#	17873
#	33619
#	50540
#	71611
#	91497
#	108498
#	124996
#	145998
#	166971
#	184417
#	206320
#
# Disc length: 3029 seconds
#
# Revision: 2
# Processed by: cddbd v1.4PL0 Copyright (c) Steve Scherf et al.
# Submitted via: CDex 1.40Beta9
#
DISCID=b10bd30c
DTITLE=Χρήστος Αντωνιάδης - Σημεία των καιρών
DYEAR=1900
DGENRE=Other
TTITLE0=Τα συναισθηματα μου
TTITLE1=Σε μισο λεπτο
TTITLE2=Αλλη μια νυχτα
TTITLE3=Σ' αγαπω
TTITLE4=Σταματα
TTITLE5=Κρυψου αγαπη μου
TTITLE6=Συγνωμη
TTITLE7=Αν
TTITLE8=Ισως
TTITLE9=Μεινε μαζι μου
TTITLE10=Βημα βημα
TTITLE11=Σημεια των καιρων
EXTD=KLcanislupus© ID3G: 12
EXTT0=
EXTT1=
EXTT2=
EXTT3=
EXTT4=
EXTT5=
EXTT6=
EXTT7=
EXTT8=
EXTT9=
EXTT10=
EXTT11=
PLAYORDER=
